# xmcd CD database file
#
# Track frame offsets:
#	150
#	19050
#	41775
#	65100
#	81150
#	99525
#	112575
#	131775
#	142800
#	157275
#
# Disc length: 2347 seconds
#
# Revision: 1
# Processed by: cddbd v1.4PL0 Copyright (c) Steve Scherf et al.
# Submitted via: CDex 1.40Release
#
DISCID=8709290a
DTITLE=Dead Livers - Reaching To The Western Sky
DYEAR=2000
DGENRE=Country
TTITLE0=Lucky Tonight
TTITLE1=Sunshine
TTITLE2=Rosemary
TTITLE3=Standing Room Only
TTITLE4=What's In It For Me
TTITLE5=Old Man On A Barstool
TTITLE6=Daydreaming
TTITLE7=Star Of The West
TTITLE8=Number 10
TTITLE9=Dear oh Dear
EXTD=YEAR: 2000 ID3G: 2
EXTT0=
EXTT1=
EXTT2=
EXTT3=
EXTT4=
EXTT5=
EXTT6=
EXTT7=
EXTT8=
EXTT9=
PLAYORDER=
